<svg id="Layer_1" viewBox="0 0 24 24" xmlns="http://www.w3.org/2000/svg" data-name="Layer 1"><path d="m9.27 14.22 8.78 8.78h-14.024c-.274 0-.537-.113-.726-.312s-.288-.467-.273-.741c.242-4.565 2.2-7.024 6.243-7.727zm13.29 6.22-2.494-2.494c-.643-1.368-1.636-2.363-3.008-3.008l-2.315-2.315c2.229-.728 3.257-2.538 3.257-5.622 0-4.149-1.851-6-6-6-3.084 0-4.894 1.028-5.622 3.257l-2.817-2.819c-.586-.586-1.535-.586-2.121 0-.586.585-.586 1.536 0 2.121l18.999 19.001c.586.586 1.535.586 2.121 0 .586-.585.586-1.536 0-2.121z"/></svg>