<?xml version="1.0" encoding="UTF-8"?>
<svg xmlns="http://www.w3.org/2000/svg" id="Layer_1" data-name="Layer 1" viewBox="0 0 24 24">
  <path d="M11.682,6.315c1.378,0,2.305-.466,2.305-2.305s-.922-2.305-2.305-2.305-2.305,.466-2.305,2.305,.922,2.305,2.305,2.305Z"/>
  <path d="M22,20.296h-1.798l-.856-5.25c-.062-.382-.339-.693-.711-.8-.069-.02-1.72-.488-3.662-.488-.987,0-1.901,.127-2.571,.255-.082-.566-.17-1.308-.218-2.065,.575-.123,1.466-.272,2.443-.272,1.641,0,3.082,.428,3.096,.432,.531,.163,1.086-.14,1.246-.667,.16-.528-.138-1.086-.666-1.246-.07-.021-1.727-.519-3.677-.519-.926,0-1.782,.113-2.438,.233,.028-.377,.069-.766,.126-1.168,.077-.547-.305-1.052-.852-1.129-.547-.08-1.053,.304-1.129,.852-.124,.882-.187,1.724-.187,2.5,0,2.055,.439,4.358,.458,4.455,.053,.277,.222,.519,.464,.665,.241,.147,.534,.185,.805,.104,.014-.004,1.46-.429,3.099-.429,1.002,0,1.93,.15,2.506,.269l.886,5.43c.079,.483,.497,.839,.987,.839h2.648c.552,0,1-.448,1-1s-.448-1-1-1Z"/>
  <path d="M14.974,17.756c-1.326,0-2.523,.344-2.535,.347-.811,.236-1.687,.121-2.407-.318-.72-.44-1.227-1.161-1.386-1.988-.02-.105-.494-2.589-.494-4.833,0-.868,.069-1.802,.205-2.776,.055-.393,.185-.757,.372-1.081-.045,0-.089,0-.134,0-3.26,0-7.594,.787-7.594,7.594s4.334,7.595,7.594,7.595c2.648,0,6.005-.52,7.172-4.363,0,0-.123-.176-.793-.176Z"/>
</svg>
