<svg id="Layer_1" viewBox="0 0 24 24" xmlns="http://www.w3.org/2000/svg" data-name="Layer 1"><path d="m7.942 21c.034.162.058.328.058.5 0 1.381-1.119 2.5-2.5 2.5s-2.5-1.119-2.5-2.5c0-.172.024-.338.058-.5zm4.058-19h-.681c.441.927.681 1.944.681 3 0 1.871-.729 3.629-2.052 4.95l-4.948 4.841s-4.974-4.873-5-4.9v9.109h15v-14c0-1.654-1.346-3-3-3zm7 4h-2v6h7v-1c0-2.757-2.243-5-5-5zm-2 13h7v-5h-7zm.058 2c-.034.162-.058.328-.058.5 0 1.381 1.119 2.5 2.5 2.5s2.5-1.119 2.5-2.5c0-.172-.024-.338-.058-.5h-4.885zm-7.058-16c0 1.336-.521 2.592-1.465 3.535l-3.535 3.458-3.527-3.45c-.952-.951-1.473-2.207-1.473-3.543s.521-2.592 1.465-3.535c.943-.944 2.199-1.465 3.535-1.465s2.591.521 3.535 1.465 1.465 2.199 1.465 3.535zm-3.5 0c0-.828-.672-1.5-1.5-1.5s-1.5.672-1.5 1.5.672 1.5 1.5 1.5 1.5-.672 1.5-1.5z"/></svg>