<?xml version="1.0" encoding="UTF-8"?>
<svg xmlns="http://www.w3.org/2000/svg" id="Layer_1" data-name="Layer 1" viewBox="0 0 24 24">
  <path d="m3.5,14.012c-1.93,0-3.5-1.57-3.5-3.5l.021-.627L1.923,3h4.077v5h2V3h4.298c-.705,2.386-.114,5.081,1.778,6.973l4.063,3.974c-.208.039-.42.065-.639.065h-.875c-1.044,0-1.983-.46-2.625-1.188-.642.728-1.581,1.188-2.625,1.188h-1.75c-1.05,0-1.983-.475-2.625-1.209-.642.735-1.575,1.209-2.625,1.209h-.875Zm13.125,2c-.927,0-1.827-.234-2.625-.668-.798.434-1.698.668-2.625.668h-1.75c-.924,0-1.826-.238-2.625-.679-.799.44-1.701.679-2.625.679h-.875c-.612,0-1.199-.105-1.75-.29v5.279c0,1.657,1.343,3,3,3h11.5c1.657,0,3-1.343,3-3v-5.279c-.551.186-1.138.29-1.75.29h-.875Zm5.913-7.476l-3.536,3.458-3.527-3.45c-1.957-1.957-1.957-5.129-.008-7.078.944-.944,2.2-1.465,3.536-1.465s2.591.521,3.535,1.465c1.949,1.949,1.949,5.121,0,7.07Zm-2.038-3.535c0-.828-.672-1.5-1.5-1.5s-1.5.672-1.5,1.5.672,1.5,1.5,1.5,1.5-.672,1.5-1.5Z"/>
</svg>
