<svg id="Layer_1" viewBox="0 0 24 24" xmlns="http://www.w3.org/2000/svg" data-name="Layer 1"><path d="m12.841 7.327.565 1.673h-4.82l.561-1.668c.071-.199.26-.332.471-.332h2.754c.209 0 .396.131.47.327zm10.159-7.327v4c0 1.103-.897 2-2 2v4h-.005c0 2.671-1.04 5.182-2.93 7.071l-7.071 6.917-7.063-6.909c-3.907-3.907-3.907-10.251-.008-14.15 1.888-1.888 4.4-2.929 7.072-2.929 1.403 0 2.758.294 4.005.84v3.16c0 2.206 1.794 4 4 4v-2c-1.103 0-2-.897-2-2v-4h2v2h2v-2zm-7.005 11.717c0-.632-.076-1.285-.253-2.035l-1.009-3.004-.007-.019c-.355-.992-1.302-1.658-2.354-1.658h-2.754c-1.054 0-2 .667-2.36 1.677l-1.037 3.1c-.15.654-.226 1.307-.226 1.94v1.283h1v2h2v-2h4v2h2v-2h1v-1.283z"/></svg>