<svg id="Layer_1" viewBox="0 0 24 24" xmlns="http://www.w3.org/2000/svg" data-name="Layer 1"><path d="m9.592 9 .561-1.668c.071-.199.26-.332.471-.332h2.754c.209 0 .396.131.47.327l.565 1.673h-4.82zm12.408 1c0 2.671-1.04 5.182-2.93 7.071l-7.071 6.917-7.063-6.909c-3.907-3.907-3.907-10.25-.008-14.149 1.889-1.889 4.4-2.93 7.072-2.93s5.182 1.041 7.07 2.929c1.89 1.889 2.93 4.4 2.93 7.071zm-5 1.717c0-.632-.076-1.285-.253-2.035l-1.009-3.004-.007-.019c-.355-.992-1.302-1.658-2.354-1.658h-2.754c-1.054 0-2 .667-2.36 1.677l-1.037 3.1c-.15.654-.226 1.307-.226 1.94v1.283h1v2h2v-2h4v2h2v-2h1v-1.283z"/></svg>